<svg xmlns="http://www.w3.org/2000/svg" width="48" height="48" viewBox="0 0 48 48"><defs><style>.a{fill:#3370ff;}.b{fill:#fff;}</style></defs><circle class="a" cx="24" cy="24" r="24"/><path class="b" d="M46.7,7.6c-.1-.2-.2-.3-.4-.3H38c-.2,0-.4.1-.4.3l-1.2,7a.55.55,0,0,0,.3.5A.3674.3674,0,0,0,37,15l9.5-7C46.7,7.9,46.8,7.7,46.7,7.6Z"/><path class="b" d="M34.3,7.9a.4711.4711,0,0,0-.1-.6.3674.3674,0,0,0-.3-.1H25.6c-.2,0-.4.1-.4.3L22.7,21.1c0,.2.1.4.2.4h.2c.1,0,.2-.1.3-.2Z"/><path class="b" d="M21.6,7.3H13.3c-.2,0-.4.1-.4.3L9.6,25.8a.55.55,0,0,0,.3.5c.2,0,.3,0,.4-.2L21.9,7.9a.4711.4711,0,0,0-.1-.6Z"/><path class="b" d="M10.7,32C8.1,32,6,28.7,6,24.6a.43.43,0,0,0-.4-.4.43.43,0,0,0-.4.4h0C5.2,28.7,3,32,.4,32a.4.4,0,1,0,0,.8c2.6,0,4.7,3.3,4.7,7.4a.43.43,0,0,0,.4.4.43.43,0,0,0,.4-.4c0-4.1,2.1-7.4,4.7-7.4a.43.43,0,0,0,.4-.4c.2-.2,0-.3-.3-.4Z"/><path class="b" d="M32.3,31.9,22,7.5c-.1-.2-.2-.3-.4-.3H13.3a.43.43,0,0,0-.4.4v.2L23.2,32.2c.1.2.2.3.4.3h8.3a.43.43,0,0,0,.4-.4v-.2Z"/><path class="b" d="M44.7,31.9,34.3,7.5c-.1-.2-.2-.3-.4-.3H25.6a.43.43,0,0,0-.4.4v.2L35.5,32.2c.1.2.2.3.4.3h8.3a.43.43,0,0,0,.4-.4.31.31,0,0,0,.1-.2Z"/><path class="b" d="M48,10.4,46.8,7.5c-.1-.2-.2-.3-.4-.2H38.1a.43.43,0,0,0-.4.4v.2l3.7,8.7a.3653.3653,0,0,0,.5.2l.1-.1,5.8-5.8C48,10.8,48,10.6,48,10.4Z"/><path class="b" d="M35.6,32.2c.1.2.2.3.4.3h8.4a.43.43,0,0,0,.4-.4l1.3-7.4c0-.2,0-.3-.2-.4a.4464.4464,0,0,0-.5,0l-9.7,7.4A.44.44,0,0,0,35.6,32.2Z"/><path class="b" d="M23.3,31.8a.3042.3042,0,0,0,0,.4.52.52,0,0,0,.4.2H32c.2,0,.4-.1.4-.3l2.5-14a.7638.7638,0,0,0-.2-.5h-.2c-.1,0-.3.1-.3.2Z"/></svg>